<svg width="842" height="388" viewBox="0 0 842 388" fill="none" xmlns="http://www.w3.org/2000/svg">
<path fill-rule="evenodd" clip-rule="evenodd" d="M780.58 16.7295C778.334 24.5875 780.847 32.3183 786.416 37.0879L768.103 91.0616H93.309C68.7941 91.0616 47.609 108.183 42.4661 132.153L1.17702 324.591C-5.76914 356.965 18.9088 387.499 52.0199 387.499H748.307C772.822 387.499 794.007 370.378 799.15 346.408L840.439 153.97C847.385 121.596 822.707 91.0616 789.596 91.0616H787.701L803.09 41.5946C811.753 40.2589 819.461 33.9009 821.969 25.1257C825.205 13.8049 818.564 2.74815 807.135 0.429613C795.705 -1.88892 783.816 5.40879 780.58 16.7295Z" fill="#0F44B1"/>
<path d="M390.578 196.259H420.222V220.468H390.578V282.72C390.578 295.237 395.354 301.495 404.906 301.495C409.352 301.495 414.54 299.93 420.469 296.801V323.728C416.351 325.21 412.481 326.28 408.858 326.939C405.4 327.762 401.447 328.174 397.001 328.174C370.98 328.174 357.97 313.023 357.97 282.72V220.468H339.195V196.259H357.97V161.675L390.578 150.312V196.259Z" fill="white"/>
<path d="M283.206 328.173C270.195 328.173 258.749 325.456 248.868 320.021C238.987 314.422 231.329 306.517 225.894 296.306C220.624 286.095 217.989 274.238 217.989 260.734C217.989 247.229 220.624 235.372 225.894 225.161C231.329 214.95 238.987 207.128 248.868 201.693C258.749 196.094 270.195 193.294 283.206 193.294C296.216 193.294 307.662 196.094 317.543 201.693C327.424 207.128 335 214.95 340.27 225.161C345.705 235.372 348.422 247.229 348.422 260.734C348.422 274.238 345.705 286.095 340.27 296.306C335 306.517 327.424 314.422 317.543 320.021C307.662 325.456 296.216 328.173 283.206 328.173ZM283.206 301.247C292.922 301.247 300.498 297.788 305.932 290.871C311.367 283.79 314.085 273.744 314.085 260.734C314.085 247.559 311.367 237.513 305.932 230.596C300.498 223.679 292.922 220.22 283.206 220.22C273.489 220.22 265.913 223.679 260.479 230.596C255.044 237.513 252.327 247.559 252.327 260.734C252.327 273.744 255.044 283.79 260.479 290.871C265.913 297.788 273.489 301.247 283.206 301.247Z" fill="white"/>
<path d="M165.707 193.295C176.411 193.295 185.799 196.095 193.868 201.694C202.103 207.294 208.526 215.281 213.137 225.656C217.748 235.867 220.054 247.724 220.054 261.229C220.054 282.144 214.619 298.531 203.75 310.388C193.045 322.081 178.388 327.927 159.778 327.927C154.343 327.927 149.238 327.351 144.462 326.198C139.686 325.045 134.251 322.987 128.158 320.022V325.21H95.5498V138.948H128.158V208.858C138.533 198.483 151.05 193.295 165.707 193.295ZM156.567 300.507C166.777 300.507 174.188 297.378 178.799 291.12C183.411 284.862 185.716 274.733 185.716 260.735C185.716 247.395 183.822 237.514 180.035 231.091C176.247 224.668 170.318 221.457 162.248 221.457C150.72 221.457 139.357 226.727 128.158 237.267V297.542C132.605 298.86 136.969 299.683 141.251 300.013C145.533 300.342 150.638 300.507 156.567 300.507Z" fill="white"/>
<path d="M541.953 293.13V323.269L420.396 323.749V296.846L477.295 237.231C486.741 227.442 493.266 219.285 496.873 212.759C500.479 206.233 502.282 199.965 502.282 193.954C502.282 178.155 492.494 170.255 472.916 170.255C464.845 170.255 456.687 171.457 448.444 173.861C440.373 176.266 432.645 179.872 425.26 184.681V153.511C440.373 145.096 456.773 140.889 474.462 140.889C493.524 140.889 508.637 145.354 519.799 154.284C531.134 163.214 536.801 175.493 536.801 191.121C536.801 208.981 528.729 226.841 512.586 244.701L468.537 293.13H541.953Z" fill="#FFCC00"/>
<path d="M694.923 328.173C681.913 328.173 670.467 325.456 660.586 320.021C650.705 314.422 643.047 306.517 637.612 296.306C632.342 286.095 629.707 274.238 629.707 260.734C629.707 247.229 632.342 235.372 637.612 225.161C643.047 214.95 650.705 207.128 660.586 201.693C670.467 196.094 681.913 193.294 694.923 193.294C707.934 193.294 719.379 196.094 729.261 201.693C739.142 207.128 746.718 214.95 751.988 225.161C757.422 235.372 760.14 247.229 760.14 260.734C760.14 274.238 757.422 286.095 751.988 296.306C746.718 306.517 739.142 314.422 729.261 320.021C719.379 325.456 707.934 328.173 694.923 328.173ZM694.923 301.247C704.64 301.247 712.216 297.788 717.65 290.871C723.085 283.79 725.802 273.744 725.802 260.734C725.802 247.559 723.085 237.513 717.65 230.596C712.216 223.679 704.64 220.22 694.923 220.22C685.207 220.22 677.631 223.679 672.196 230.596C666.762 237.513 664.044 247.559 664.044 260.734C664.044 273.744 666.762 283.79 672.196 290.871C677.631 297.788 685.207 301.247 694.923 301.247Z" fill="white"/>
<path d="M605.586 325.21L600.645 307.918C594.717 314.341 587.8 319.281 579.895 322.74C572.154 326.198 564.002 327.927 555.439 327.927C540.287 327.927 528.265 321.999 519.372 310.141C510.644 298.284 506.279 282.144 506.279 261.723C506.279 240.149 511.302 223.351 521.348 211.328C531.559 199.306 545.887 193.295 564.332 193.295C576.189 193.295 587.223 195.848 597.434 200.953V138.948H630.042V296.554L635.477 325.21H605.586ZM540.617 261.229C540.617 274.075 542.593 283.956 546.545 290.873C550.498 297.79 556.344 301.248 564.085 301.248C574.954 301.248 586.07 295.813 597.434 284.944V223.927C587.882 221.457 579.154 220.222 571.249 220.222C560.709 220.222 552.968 223.598 548.028 230.35C543.087 236.937 540.617 247.23 540.617 261.229Z" fill="white"/>
</svg>
